# xmcd
#
# Track frame offsets:
#	150
#	12015
#	23157
#	35050
#	48555
#	60782
#	74487
#	88310
#	100047
#	112597
#	126530
#	139017
#	152835
#	167015
#	180577
#	193217
#
# Disc length: 2751 seconds
#
# Revision: 1
# Processed by: cddbd v1.5.2PL0 Copyright (c) Steve Scherf et al.
# Submitted via: audiograbber 1.83.01
#
DISCID=d50abd10
DTITLE=Various Artist - A Collection Of 16 Big Hits - Volume 9
DYEAR=1968
DGENRE=Oldies
TTITLE0=Temptations - Loneliness Has Made Me Realize (It's You That I Need)
TTITLE1=Marvin Gaye and Tammi Terrell - Ain't No Mountain High Enough
TTITLE2=Wonder Stevie - I Was Made To Love Her
TTITLE3=Martha Reeves and The Vandellas - Honey Chile
TTITLE4=Supremes - You Keep Me Hangin' On
TTITLE5=Jr. Walker and The All-Stars - Come See About Me
TTITLE6=Four Tops - Bernadette
TTITLE7=Marvelettes - My Baby Must Be A Magician
TTITLE8=Supremes - Love Is Here And Now You're Gone
TTITLE9=Gladys Knight and The Pips - Everybody Needs Love
TTITLE10=Smokey Robinson and The Miracles - I Second That Emotion
TTITLE11=Marvin Gaye and Tammi Terrell - Your Precious Love
TTITLE12=Temptations - All I Need
TTITLE13=Four Tops - Reach Out I'll Be There
TTITLE14=Smokey Robinson and The Miracles - More Love
TTITLE15=Jimmy Ruffin - Don't You Miss Me A Little Bit Baby
EXTD=
EXTT0=
EXTT1=
EXTT2=
EXTT3=
EXTT4=
EXTT5=
EXTT6=
EXTT7=
EXTT8=
EXTT9=
EXTT10=
EXTT11=
EXTT12=
EXTT13=
EXTT14=
EXTT15=
PLAYORDER=
